PathFileType	4	(X/Y/Z)	23_coords_data.trc
DataRate	CameraRate	NumFrames	NumMarkers	Units	OrigDataRate	OrigDataStartFrame	OrigNumFrames
30.0	30.0	8	21	m	30.0	31	71
Frame#	Time	THUMB_TIP	THUMB_IP	THUMB_MCP	THUMB_CMC	INDEX_TIP	INDEX_DIP	INDEX_PIP	INDEX_MCP	MIDDLE_TIP	MIDDLE_DIP	MIDDLE_PIP	MIDDLE_MCP	RING_TIP	RING_DIP	RING_PIP	RING_MCP	PINKY_TIP	PINKY_DIP	PINKY_PIP	PINKY_MCP	WRIST
X1	Y1	Z1	X2	Y2	Z2	X3	Y3	Z3	X4	Y4	Z4	X5	Y5	Z5	X6	Y6	Z6	X7	Y7	Z7	X8	Y8	Z8	X9	Y9	Z9	X10	Y10	Z10	X11	Y11	Z11	X12	Y12	Z12	X13	Y13	Z13	X14	Y14	Z14	X15	Y15	Z15	X16	Y16	Z16	X17	Y17	Z17	X18	Y18	Z18	X19	Y19	Z19	X20	Y20	Z20	X21	Y21	Z21
30	1.0	0.005232930183410644	0.06118470001220703	0.9590260009765625	-0.005311560153961181	0.03848839950561524	0.9622730102539062	-0.0338213996887207	0.025422300338745117	0.9667479858398438	-0.060264499664306644	0.03701020050048828	0.9772520141601563	0.03035930061340332	0.027271799087524414	0.860677978515625	0.013497599601745605	0.027508800506591796	0.87722900390625	-0.005558909893035889	0.028877899169921874	0.892094970703125	-0.04002090072631836	0.033577098846435546	0.9169110107421875	-0.014543899536132813	0.04543489837646485	0.9525780029296875	0.001890480041503906	0.04986349868774414	0.9414910278320312	0.0013094600439071652	0.056394699096679685	0.914875	-0.04483060073852539	0.05729719924926758	0.91472900390625	-0.012182100296020508	0.055597900390625	0.95977001953125	0.000363227009773254	0.06490049743652344	0.9462169799804687	-0.001899530053138733	0.07720059967041015	0.9235120239257812	-0.04540779876708984	0.07674510192871094	0.9258679809570313	0.015219699859619141	0.12231400299072266	0.9156099853515625	0.000709232985973358	0.1102239990234375	0.92531201171875	-0.013095199584960937	0.09983989715576172	0.932468017578125	-0.03793939971923828	0.08507649993896485	0.9436270141601563	-0.09700569915771484	0.05150360107421875	0.9863880004882812
31	1.0333333333333334	0.005391590118408203	0.06079779815673828	0.9588679809570313	-0.0051244401931762685	0.03812149810791016	0.9618510131835938	-0.03372560119628906	0.025135000228881835	0.9667440185546875	-0.060101001739501954	0.036959701538085935	0.9775180053710938	0.03222050094604492	0.027688699722290037	0.8626840209960938	0.014673100471496583	0.02778350067138672	0.8785260009765625	-0.004886539936065673	0.028934799194335937	0.8927109985351562	-0.04012409973144531	0.033347900390625	0.9168170166015625	-0.014580699920654297	0.04547409820556641	0.9531320190429687	0.001754310011863708	0.04961989974975586	0.9412239990234375	0.0014860999584197989	0.05633729934692383	0.9146119995117188	-0.044770500183105466	0.057051399230957034	0.914635009765625	-0.01193280029296875	0.05546450042724609	0.95902001953125	0.000429307997226715	0.06457019805908203	0.9461209716796875	-0.0018853000402450561	0.07685359954833984	0.9232160034179687	-0.04529629898071289	0.07640570068359374	0.9256420288085937	0.01737739944458008	0.12019599914550781	0.9167420043945312	0.00219225001335144	0.10869400024414062	0.9259959716796875	-0.012293999671936034	0.09874800109863281	0.9328709716796875	-0.0379650993347168	0.08477110290527344	0.943552001953125	-0.09710579681396485	0.05153609848022461	0.9863759765625
32	1.0666666666666667	0.0068677601814270016	0.059527599334716796	0.9585780029296875	-0.004637020111083984	0.037048999786376956	0.9616900024414062	-0.033316001892089844	0.024701900482177734	0.9667340087890625	-0.060272701263427736	0.03648609924316406	0.977155029296875	0.03442300033569336	0.028237499237060548	0.8653590087890625	0.01592020034790039	0.02800740051269531	0.8800269775390624	-0.004316989898681641	0.02896660041809082	0.8930330200195312	-0.04013819885253906	0.03300790023803711	0.9164089965820312	-0.01335260009765625	0.044366199493408205	0.9526259765625	0.002177999973297119	0.04919329833984375	0.940697998046875	0.0015469900369644162	0.05628620147705078	0.9140919799804688	-0.0445093994140625	0.05661949920654297	0.9143909912109375	-0.011156200408935547	0.05429629898071289	0.9595969848632813	0.000843285977840423	0.0639719009399414	0.9455750122070312	-0.001641299962997436	0.07633399963378906	0.92281298828125	-0.045067298889160154	0.07602339935302735	0.9255029907226563	0.018289100646972655	0.11873799896240235	0.9163330078125	0.00278327989578247	0.10758799743652343	0.9254869995117188	-0.01205900001525879	0.09798079681396485	0.932458984375	-0.03800090026855469	0.08445860290527343	0.9430449829101563	-0.09687940216064453	0.05131579971313477	0.9865679931640625
33	1.1	0.011670599937438965	0.05402890014648438	0.95947802734375	-0.003335050106048584	0.033461700439453124	0.9622360229492187	-0.03298600006103516	0.02333799934387207	0.9665850219726563	-0.06010940170288086	0.03598619842529297	0.976218994140625	0.03671760177612305	0.02877440071105957	0.86881298828125	0.017221000671386717	0.028378999710083008	0.8816729736328125	-0.003946330070495605	0.029060400009155274	0.8934749755859375	-0.04061759948730469	0.03249779891967773	0.9159600219726562	-0.008696849822998048	0.044407699584960936	0.9548079833984375	0.0050240402221679685	0.049275699615478515	0.9391729736328125	0.001467769980430603	0.0567761001586914	0.9120809936523437	-0.04487689971923828	0.05621099853515625	0.9144119873046875	-0.007359360218048096	0.053790599822998046	0.9605750122070312	0.002814389944076538	0.06384960174560547	0.9444929809570313	-0.00212746000289917	0.07663610076904297	0.9207249755859375	-0.04522919845581055	0.07564579772949219	0.92497900390625	0.018254600524902343	0.11803399658203124	0.9146270141601562	0.002554840087890625	0.10723200225830078	0.923968017578125	-0.01242240047454834	0.09785369873046874	0.9310280151367187	-0.03823440170288086	0.08463839721679688	0.9421929931640625	-0.09652259826660156	0.05125099945068359	0.9864970092773437
34	1.1333333333333333	0.01893479919433594	0.04526760101318359	0.9591060180664063	-0.0017863800525665281	0.028664199829101563	0.9621339721679687	-0.03252420043945312	0.021624500274658204	0.9662940063476563	-0.059787399291992185	0.0357140998840332	0.9759390258789062	0.03905220031738281	0.02893510055541992	0.872739990234375	0.0183262996673584	0.028353300094604492	0.8836950073242188	-0.0035770399570465086	0.02889699935913086	0.8936220092773437	-0.04098139953613281	0.031995500564575195	0.9154940185546875	-0.000187011003494262	0.04431600189208985	0.9536680297851563	0.008470210075378418	0.049201900482177735	0.9366160278320312	0.001355039954185485	0.05668569946289063	0.90989697265625	-0.045149600982666016	0.05584600067138672	0.9141380004882812	-2.2230399772524e-05	0.05354140090942383	0.9610889892578125	0.005759809970855713	0.06448909759521484	0.94152197265625	-0.002685869932174682	0.07659269714355468	0.9179459838867188	-0.045675399780273435	0.07529620361328125	0.9245070190429687	0.01762980079650879	0.11737899780273438	0.91143701171875	0.001759760022163391	0.10712599945068359	0.921301025390625	-0.01338659954071045	0.09813839721679687	0.9287319946289062	-0.03896979904174805	0.0851343002319336	0.9408400268554687	-0.09617469787597656	0.05136819839477539	0.9869719848632813
35	1.1666666666666667	0.024765100479125977	0.0330974006652832	0.9568770141601562	-0.001256829977035522	0.023862100601196288	0.9604920043945312	-0.03275299835205078	0.020144500732421876	0.9653460083007812	-0.05907809829711914	0.03590779876708984	0.975594970703125	0.04033060073852539	0.029033300399780273	0.87547900390625	0.019019899368286134	0.02858839988708496	0.8849609985351562	-0.003577689886093139	0.028894800186157227	0.893864990234375	-0.04170949935913086	0.03159239959716797	0.9150399780273437	0.009286089897155762	0.04495280075073242	0.9520960083007812	0.012665200233459472	0.050251499176025394	0.9323579711914063	0.0006345639824867241	0.056810001373291015	0.90660400390625	-0.04563840103149414	0.05554750061035156	0.9139169921875	0.01021090030670166	0.05556549835205078	0.9573619995117187	0.00993546962738037	0.06573539733886719	0.9373280029296875	-0.003631409883499145	0.0765115966796875	0.9140590209960937	-0.04595930099487305	0.0749406967163086	0.9233989868164062	0.01646699905395508	0.11635800170898437	0.90722802734375	0.000518464982509613	0.10686000061035156	0.9176389770507812	-0.014691900253295899	0.0983904037475586	0.9257490234375	-0.04011629867553711	0.0859634017944336	0.9385560302734375	-0.09531590270996093	0.05148040008544922	0.9866669921875
36	1.2	0.026358800888061522	0.020895099639892577	0.951989990234375	-0.0017144999504089351	0.019041900634765626	0.95752001953125	-0.03313420104980469	0.018935199737548827	0.9650789794921875	-0.059033000946044925	0.03621749877929688	0.975677978515625	0.04103150177001953	0.02836199951171875	0.8769450073242188	0.01952589988708496	0.028063800811767577	0.8859240112304687	-0.0032199399471282957	0.02841699981689453	0.8944929809570312	-0.04163290023803711	0.031082700729370118	0.91518701171875	0.02505400085449219	0.048056999206542966	0.9456530151367187	0.019424999237060547	0.05227560043334961	0.9245770263671875	-0.000248579993844032	0.05694900131225586	0.90260498046875	-0.04555379867553711	0.055102798461914064	0.9140709838867187	0.02367609977722168	0.06121490097045899	0.9479929809570312	0.01550730037689209	0.06920480346679687	0.928801025390625	-0.0051016402244567875	0.07707620239257812	0.9093179931640625	-0.045962398529052734	0.07461669921875	0.9225139770507812	0.014105500221252442	0.11627100372314453	0.9024819946289062	-0.0015600500106811518	0.10731300354003906	0.9135900268554688	-0.01650149917602539	0.09924990081787109	0.9225910034179687	-0.0416255989074707	0.08713990020751954	0.9367559814453125	-0.09496019744873047	0.051977100372314455	0.9867479858398438
37	1.2333333333333334	0.025101600646972658	0.01228279972076416	0.947614990234375	-0.00240007996559143	0.015297800064086915	0.9550390014648438	-0.03340299987792969	0.01807740020751953	0.964666015625	-0.05847790145874023	0.036390998840332034	0.9756190185546875	0.04204880142211914	0.027578699111938478	0.8786959838867188	0.020527000427246093	0.027405500411987305	0.8873679809570313	-0.002321979999542236	0.027857799530029297	0.8954340209960937	-0.04095709991455078	0.030786199569702147	0.9154940185546875	0.038690399169921875	0.05116220092773437	0.9345059814453125	0.02448940086364746	0.05391120147705078	0.9162039794921875	-0.0008154519796371461	0.056866901397705075	0.89989599609375	-0.045017898559570314	0.05475239944458008	0.914552978515625	0.0356515998840332	0.06757659912109375	0.9348889770507812	0.0196919002532959	0.07302429962158204	0.9200640258789062	-0.005787539958953858	0.07767659759521485	0.9071329956054688	-0.04558499908447266	0.07426200103759766	0.9222349853515625	0.012132599830627441	0.11543299865722656	0.8982730102539063	-0.003208650112152099	0.10718399810791016	0.9105159912109375	-0.018024799346923828	0.09952069854736328	0.92027099609375	-0.04215790176391602	0.08785820007324219	0.9357360229492188	-0.09466210174560546	0.05238529968261719	0.9868280029296875
